<?xml version="1.0" encoding="UTF-8"?><svg id="Laag_1" xmlns="http://www.w3.org/2000/svg" viewBox="0 0 763.291 572.21"><circle cx="39.222" cy="269.156" r="5.977"/><circle cx="39.222" cy="291.289" r="5.977"/><circle cx="39.409" cy="312.58" r="5.977"/><circle cx="39.409" cy="334.246" r="5.977"/><circle cx="22.413" cy="334.433" r="5.977"/><circle cx="5.977" cy="333.872" r="5.977"/><path d="M123.269,358.89c-6.53,0-11.82,5.29-11.82,11.82s5.29,11.83,11.82,11.83,11.82-5.3,11.82-11.83-5.29-11.82-11.82-11.82ZM131.349,371.45c-.4,4.52-4.4,7.86-8.92,7.46-4.52-.41-7.85-4.4-7.45-8.92.4-4.52,4.39-7.86,8.91-7.45,4.53.4,7.86,4.39,7.46,8.91Z" fill="#fff"/><path d="M128.759,353.23c-1.73-.55-3.58-.84-5.49-.84-1.92,0-3.77.3-5.51.85-7.42,2.34-12.81,9.29-12.81,17.47,0,10.11,8.22,18.33,18.32,18.33s18.32-8.22,18.32-18.33c0-8.19-5.4-15.14-12.83-17.48ZM131.349,371.45c-.4,4.52-4.4,7.86-8.92,7.46-4.52-.41-7.85-4.4-7.45-8.92.4-4.52,4.39-7.86,8.91-7.45,4.53.4,7.86,4.39,7.46,8.91Z"/><path d="M68.729,397.97c-6.53,0-11.82,5.29-11.82,11.82s5.29,11.83,11.82,11.83,11.83-5.3,11.83-11.83-5.3-11.82-11.83-11.82ZM76.989,410.08c-.4,4.52-4.39,7.85-8.91,7.45-4.53-.4-7.86-4.39-7.46-8.91.4-4.53,4.4-7.86,8.92-7.46,4.52.4,7.85,4.4,7.45,8.92Z" fill="#fff"/><path d="M74.619,392.44c-1.85-.63-3.83-.97-5.89-.97-1.77,0-3.49.25-5.11.73-7.62,2.22-13.21,9.26-13.21,17.59,0,10.11,8.22,18.33,18.32,18.33s18.33-8.22,18.33-18.33c0-8.04-5.21-14.89-12.44-17.35ZM76.989,410.08c-.4,4.52-4.39,7.85-8.91,7.45-4.53-.4-7.86-4.39-7.46-8.91.4-4.53,4.4-7.86,8.92-7.46,4.52.4,7.85,4.4,7.45,8.92Z"/><path d="M177.809,217.18c-6.53,0-11.83,5.29-11.83,11.82s5.3,11.82,11.83,11.82,11.82-5.29,11.82-11.82-5.29-11.82-11.82-11.82ZM185.609,228.98c-.41,4.53-4.4,7.86-8.92,7.46-4.52-.4-7.86-4.4-7.45-8.92.4-4.52,4.39-7.85,8.91-7.45s7.86,4.39,7.46,8.91Z" fill="#fff"/><path d="M182.549,211.31c-1.51-.41-3.1-.63-4.74-.63-2.2,0-4.31.39-6.26,1.11-7.03,2.55-12.07,9.3-12.07,17.21,0,10.1,8.22,18.32,18.33,18.32s18.32-8.22,18.32-18.32c0-8.46-5.77-15.6-13.58-17.69ZM185.609,228.98c-.41,4.53-4.4,7.86-8.92,7.46-4.52-.4-7.86-4.4-7.45-8.92.4-4.52,4.39-7.85,8.91-7.45s7.86,4.39,7.46,8.91Z"/><path d="M177.809,283.67c-6.53,0-11.83,5.29-11.83,11.82s5.3,11.82,11.83,11.82,11.82-5.29,11.82-11.82-5.29-11.82-11.82-11.82ZM185.809,296.89c-.4,4.52-4.39,7.86-8.91,7.46-4.52-.4-7.86-4.4-7.46-8.92.4-4.52,4.4-7.86,8.92-7.45,4.52.4,7.86,4.39,7.45,8.91Z" fill="#fff"/><path d="M177.809,277.17c-10.11,0-18.33,8.22-18.33,18.32,0,8.19,5.4,15.14,12.83,17.48,1.74.55,3.58.84,5.5.84s3.76-.3,5.5-.84c7.42-2.35,12.82-9.3,12.82-17.48,0-10.1-8.22-18.32-18.32-18.32ZM185.809,296.89c-.4,4.52-4.39,7.86-8.91,7.46-4.52-.4-7.86-4.4-7.46-8.92.4-4.52,4.4-7.86,8.92-7.45,4.52.4,7.86,4.39,7.45,8.91Z"/><path d="M354.859,297.86c-6.53,0-11.82,5.3-11.82,11.83s5.29,11.82,11.82,11.82,11.83-5.3,11.83-11.82-5.3-11.83-11.83-11.83ZM363.039,310.84c-.4,4.52-4.4,7.86-8.92,7.46-4.52-.41-7.85-4.4-7.45-8.92.4-4.52,4.39-7.86,8.91-7.46,4.53.41,7.86,4.4,7.46,8.92Z" fill="#fff"/><path d="M354.859,291.36c-3.36,0-6.52.91-9.23,2.51-3.22,1.88-5.82,4.73-7.4,8.14-1.09,2.34-1.69,4.94-1.69,7.68,0,10.1,8.22,18.32,18.32,18.32s18.33-8.22,18.33-18.32-8.22-18.33-18.33-18.33ZM363.039,310.84c-.4,4.52-4.4,7.86-8.92,7.46-4.52-.41-7.85-4.4-7.45-8.92.4-4.52,4.39-7.86,8.91-7.46,4.53.41,7.86,4.4,7.46,8.92Z"/><path d="M355.989,138.73c-6.53,0-11.83,5.3-11.83,11.83s5.3,11.82,11.83,11.82,11.82-5.29,11.82-11.82-5.3-11.83-11.82-11.83ZM363.989,151.21c-.4,4.52-4.39,7.86-8.92,7.46-4.52-.41-7.85-4.4-7.45-8.92.4-4.52,4.39-7.86,8.92-7.45,4.52.4,7.85,4.39,7.45,8.91Z" fill="#fff"/><path d="M355.989,132.23c-3.57,0-6.9,1.02-9.72,2.79-3.16,1.99-5.68,4.91-7.15,8.38-.94,2.2-1.46,4.62-1.46,7.16,0,10.1,8.22,18.32,18.33,18.32s18.32-8.22,18.32-18.32-8.22-18.33-18.32-18.33ZM363.989,151.21c-.4,4.52-4.39,7.86-8.92,7.46-4.52-.41-7.85-4.4-7.45-8.92.4-4.52,4.39-7.86,8.92-7.45,4.52.4,7.85,4.39,7.45,8.91Z"/><path d="M398.199,180.57c-6.53,0-11.83,5.29-11.83,11.82s5.3,11.83,11.83,11.83c1.39,0,2.71-.24,3.94-.68h.01c3.51-1.24,6.25-4.1,7.35-7.67.34-1.1.52-2.27.52-3.48,0-6.53-5.3-11.82-11.82-11.82ZM397.469,199.94c-4.52-.41-7.86-4.4-7.46-8.92.41-4.52,4.4-7.86,8.92-7.45,4.52.4,7.86,4.39,7.46,8.91-.41,4.52-4.4,7.86-8.92,7.46Z" fill="#fff"/><path d="M398.189,174.07c-10.1,0-18.32,8.22-18.32,18.32s8.22,18.33,18.32,18.33c3.14,0,6.1-.79,8.68-2.2,3.29-1.76,5.98-4.52,7.68-7.87,1.26-2.48,1.97-5.29,1.97-8.26,0-10.1-8.22-18.32-18.33-18.32ZM390.009,191.02c.41-4.52,4.4-7.86,8.92-7.45,4.52.4,7.86,4.39,7.46,8.91-.41,4.52-4.4,7.86-8.92,7.46-4.52-.41-7.86-4.4-7.46-8.92Z"/><path d="M446.379,303.47c-6.53,0-11.82,5.29-11.82,11.82s5.29,11.82,11.82,11.82c2.13,0,4.12-.56,5.84-1.54,1.99-1.14,3.62-2.83,4.68-4.87v-.01c.83-1.62,1.3-3.45,1.3-5.4,0-6.53-5.29-11.82-11.82-11.82ZM445.839,323.96c-4.52-.4-7.85-4.4-7.45-8.92.4-4.52,4.39-7.85,8.92-7.45,4.52.4,7.85,4.39,7.45,8.91s-4.39,7.86-8.92,7.46Z" fill="#fff"/><path d="M446.379,296.97c-10.1,0-18.32,8.22-18.32,18.32s8.22,18.32,18.32,18.32c3.21,0,6.24-.83,8.87-2.29,3.26-1.82,5.92-4.6,7.58-7.96,1.2-2.44,1.87-5.18,1.87-8.07,0-10.1-8.22-18.32-18.32-18.32ZM454.759,316.5c-.4,4.52-4.39,7.86-8.92,7.46-4.52-.4-7.85-4.4-7.45-8.92.4-4.52,4.39-7.85,8.92-7.45,4.52.4,7.85,4.39,7.45,8.91Z"/><path d="M494.189,431.59c-6.52,0-11.82,5.29-11.82,11.82s5.3,11.83,11.82,11.83,11.83-5.3,11.83-11.83-5.3-11.82-11.83-11.82ZM494.029,452.27c-4.52-.4-7.86-4.39-7.45-8.92.4-4.52,4.39-7.85,8.91-7.45,4.52.4,7.86,4.39,7.46,8.92-.41,4.52-4.4,7.85-8.92,7.45Z" fill="#fff"/><path d="M494.189,425.09c-3.26,0-6.32.85-8.97,2.35-3.25,1.84-5.9,4.64-7.53,8.01-1.16,2.41-1.82,5.11-1.82,7.96,0,10.11,8.22,18.33,18.32,18.33s18.33-8.22,18.33-18.33-8.22-18.32-18.33-18.32ZM502.949,444.82c-.41,4.52-4.4,7.85-8.92,7.45-4.52-.4-7.86-4.39-7.45-8.92.4-4.52,4.39-7.85,8.91-7.45,4.52.4,7.86,4.39,7.46,8.92Z"/><path d="M537.149,470.81c-6.53,0-11.82,5.3-11.82,11.82s5.29,11.83,11.82,11.83,11.82-5.3,11.82-11.83-5.29-11.82-11.82-11.82ZM545.169,483.28c-.41,4.52-4.4,7.85-8.92,7.45-4.52-.4-7.86-4.39-7.46-8.92.41-4.52,4.4-7.85,8.92-7.45s7.86,4.39,7.46,8.92Z" fill="#fff"/><path d="M537.149,464.31c-10.1,0-18.32,8.22-18.32,18.32s8.22,18.33,18.32,18.33c3.94,0,7.6-1.25,10.58-3.37,3.08-2.19,5.46-5.3,6.72-8.93.66-1.89,1.02-3.92,1.02-6.03,0-10.1-8.21-18.32-18.32-18.32ZM536.249,490.73c-4.52-.4-7.86-4.39-7.46-8.92.41-4.52,4.4-7.85,8.92-7.45s7.86,4.39,7.46,8.92c-.41,4.52-4.4,7.85-8.92,7.45Z"/><path d="M630.539,314.67c-6.53,0-11.83,5.3-11.83,11.82,0,4.52,2.54,8.45,6.27,10.44,1.66.89,3.55,1.39,5.56,1.39,1.84,0,3.58-.42,5.13-1.17,3.96-1.91,6.69-5.97,6.69-10.66,0-6.52-5.29-11.82-11.82-11.82ZM638.539,327.27c-.4,4.52-4.39,7.86-8.91,7.46-4.52-.41-7.86-4.4-7.46-8.92.4-4.52,4.4-7.86,8.92-7.45,4.52.4,7.86,4.39,7.45,8.91Z" fill="#fff"/><path d="M630.539,308.17c-10.11,0-18.33,8.22-18.33,18.33,0,8.06,5.23,14.92,12.48,17.35,1.84.63,3.81.97,5.85.97,1.79,0,3.52-.26,5.15-.75,7.6-2.22,13.17-9.26,13.17-17.57,0-10.11-8.22-18.33-18.32-18.33ZM622.169,325.81c.4-4.52,4.4-7.86,8.92-7.45,4.52.4,7.86,4.39,7.45,8.91-.4,4.52-4.39,7.86-8.91,7.46-4.52-.41-7.86-4.4-7.46-8.92Z"/><path d="M631.279,255.28c-6.53,0-11.82,5.29-11.82,11.82s5.29,11.82,11.82,11.82,11.83-5.29,11.83-11.82-5.3-11.82-11.83-11.82ZM639.099,267.76c-.4,4.52-4.39,7.86-8.91,7.45-4.52-.4-7.86-4.39-7.46-8.91.41-4.52,4.4-7.86,8.92-7.46,4.52.4,7.86,4.4,7.45,8.92Z" fill="#fff"/><path d="M636.749,249.62c-1.73-.55-3.57-.84-5.47-.84-1.93,0-3.79.3-5.53.86-7.41,2.35-12.79,9.29-12.79,17.46,0,10.11,8.22,18.32,18.32,18.32s18.33-8.21,18.33-18.32c0-8.2-5.41-15.15-12.86-17.48ZM639.099,267.76c-.4,4.52-4.39,7.86-8.91,7.45-4.52-.4-7.86-4.39-7.46-8.91.41-4.52,4.4-7.86,8.92-7.46,4.52.4,7.86,4.4,7.45,8.92Z"/><path d="M576.749,207.09c-6.53,0-11.83,5.3-11.83,11.83s5.3,11.82,11.83,11.82,11.82-5.3,11.82-11.82-5.29-11.83-11.82-11.83ZM584.749,220.69c-.4,4.52-4.39,7.86-8.91,7.46-4.52-.41-7.86-4.4-7.46-8.92.41-4.52,4.4-7.86,8.92-7.45,4.52.4,7.86,4.39,7.45,8.91Z" fill="#fff"/><path d="M576.749,200.59c-10.11,0-18.33,8.22-18.33,18.33,0,8.18,5.39,15.12,12.8,17.46,1.75.56,3.6.86,5.53.86,1.9,0,3.74-.29,5.47-.84,7.44-2.33,12.85-9.28,12.85-17.48,0-10.11-8.22-18.33-18.32-18.33ZM584.749,220.69c-.4,4.52-4.39,7.86-8.91,7.46-4.52-.41-7.86-4.4-7.46-8.92.41-4.52,4.4-7.86,8.92-7.45,4.52.4,7.86,4.39,7.45,8.91Z"/><path d="M577.489,66.27c-6.53,0-11.82,5.29-11.82,11.82,0,6.33,4.96,11.49,11.21,11.8l.61.02c6.53,0,11.83-5.29,11.83-11.82s-5.3-11.82-11.83-11.82ZM576.959,86.95c-4.52-.41-7.86-4.4-7.46-8.92.41-4.52,4.4-7.86,8.92-7.45,4.52.4,7.86,4.39,7.45,8.91-.4,4.52-4.39,7.86-8.91,7.46Z" fill="#fff"/><path d="M577.489,59.77c-10.1,0-18.32,8.22-18.32,18.32,0,8.13,5.32,15.04,12.67,17.43,1.78.58,3.68.89,5.65.89,1.86,0,3.66-.28,5.35-.79,7.51-2.3,12.98-9.29,12.98-17.53,0-10.1-8.22-18.32-18.33-18.32ZM585.869,79.49c-.4,4.52-4.39,7.86-8.91,7.46-4.52-.41-7.86-4.4-7.46-8.92.41-4.52,4.4-7.86,8.92-7.45,4.52.4,7.86,4.39,7.45,8.91Z"/><path d="M631.279,67.02c-6.53,0-11.82,5.29-11.82,11.82s5.29,11.82,11.82,11.82,11.83-5.29,11.83-11.82-5.3-11.82-11.83-11.82ZM639.469,79.57c-.4,4.52-4.4,7.86-8.92,7.45-4.52-.4-7.85-4.39-7.45-8.91.4-4.52,4.39-7.86,8.91-7.46,4.53.41,7.86,4.4,7.46,8.92Z" fill="#fff"/><path d="M631.279,60.51c-10.1,0-18.32,8.22-18.32,18.33,0,8.18,5.4,15.13,12.82,17.47,1.74.55,3.58.85,5.5.85s3.77-.3,5.5-.85c7.43-2.34,12.83-9.29,12.83-17.47,0-10.11-8.22-18.33-18.33-18.33ZM639.469,79.57c-.4,4.52-4.4,7.86-8.92,7.45-4.52-.4-7.85-4.39-7.45-8.91.4-4.52,4.39-7.86,8.91-7.46,4.53.41,7.86,4.4,7.46,8.92Z"/><path d="M685.819,96.15c-6.53,0-11.82,5.29-11.82,11.82s5.29,11.83,11.82,11.83,11.82-5.3,11.82-11.83-5.29-11.82-11.82-11.82ZM693.449,109.19c-.4,4.52-4.39,7.86-8.91,7.45-4.52-.4-7.86-4.39-7.46-8.91.41-4.52,4.4-7.86,8.92-7.46,4.52.41,7.86,4.4,7.45,8.92Z" fill="#fff"/><path d="M690.579,90.28c-1.52-.41-3.11-.63-4.76-.63-2.19,0-4.29.39-6.24,1.09-7.04,2.56-12.08,9.32-12.08,17.23,0,10.11,8.22,18.33,18.32,18.33s18.32-8.22,18.32-18.33c0-8.45-5.76-15.59-13.56-17.69ZM693.449,109.19c-.4,4.52-4.39,7.86-8.91,7.45-4.52-.4-7.86-4.39-7.46-8.91.41-4.52,4.4-7.86,8.92-7.46,4.52.41,7.86,4.4,7.45,8.92Z"/><path d="M577.119,7.62c-6.53,0-11.82,5.3-11.82,11.82s5.29,11.83,11.82,11.83,11.82-5.3,11.82-11.83-5.29-11.82-11.82-11.82ZM584.749,20.1c-.4,4.52-4.39,7.86-8.91,7.46-4.52-.41-7.86-4.4-7.46-8.92.41-4.52,4.4-7.86,8.92-7.46,4.52.41,7.86,4.4,7.45,8.92Z" fill="#fff"/><path d="M577.119,1.12c-8.18,0-15.13,5.4-17.48,12.82-.54,1.74-.84,3.58-.84,5.5s.29,3.76.84,5.5c2.34,7.43,9.29,12.83,17.48,12.83,10.1,0,18.32-8.22,18.32-18.33s-8.22-18.32-18.32-18.32ZM584.749,20.1c-.4,4.52-4.39,7.86-8.91,7.46-4.52-.41-7.86-4.4-7.46-8.92.41-4.52,4.4-7.86,8.92-7.46,4.52.41,7.86,4.4,7.45,8.92Z"/><path d="M631.659,6.5c-6.53,0-11.83,5.29-11.83,11.82s5.3,11.83,11.83,11.83,11.82-5.3,11.82-11.83-5.29-11.82-11.82-11.82ZM631.309,26.43c-4.52-.4-7.86-4.39-7.46-8.91.41-4.52,4.4-7.86,8.92-7.46,4.52.41,7.86,4.4,7.45,8.92-.4,4.52-4.39,7.86-8.91,7.45Z" fill="#fff"/><path d="M649.139,12.82c-2.35-7.42-9.3-12.82-17.48-12.82-10.1,0-18.32,8.22-18.32,18.32s8.22,18.33,18.32,18.33c8.19,0,15.14-5.4,17.48-12.83.55-1.74.84-3.58.84-5.5s-.3-3.76-.84-5.5ZM631.309,26.43c-4.52-.4-7.86-4.39-7.46-8.91.41-4.52,4.4-7.86,8.92-7.46,4.52.41,7.86,4.4,7.45,8.92-.4,4.52-4.39,7.86-8.91,7.45Z"/><path d="M178.179,454.75c-6.53,0-11.82,5.29-11.82,11.82,0,2.19.6,4.23,1.62,5.99l.02.03c.79,1.32,1.81,2.47,3.03,3.4l.01.01c1.98,1.5,4.45,2.4,7.14,2.4,6.53,0,11.82-5.3,11.82-11.83s-5.29-11.82-11.82-11.82ZM186.309,466.52c-.4,4.52-4.4,7.86-8.92,7.45-4.52-.4-7.86-4.39-7.45-8.91.4-4.52,4.39-7.86,8.91-7.46,4.52.41,7.86,4.4,7.46,8.92Z" fill="#fff"/><path d="M178.179,448.25c-10.1,0-18.32,8.22-18.32,18.32,0,2.72.59,5.3,1.66,7.62,1.57,3.42,4.16,6.27,7.38,8.17,2.72,1.61,5.9,2.53,9.28,2.53,10.1,0,18.32-8.22,18.32-18.32s-8.22-18.32-18.32-18.32ZM186.309,466.52c-.4,4.52-4.4,7.86-8.92,7.45-4.52-.4-7.86-4.39-7.45-8.91.4-4.52,4.39-7.86,8.91-7.46,4.52.41,7.86,4.4,7.46,8.92Z"/><circle cx="231.408" cy="386.728" r="17.123"/><circle cx="273.711" cy="404.752" r="13.107"/><circle cx="292.669" cy="444.067" r="17.027"/><path d="M287.863,481.893c.126,9.608-10.649,16.048-19.106,11.587-9.32-4.514-9.42-18.628-.177-23.281,8.46-4.628,19.413,1.8,19.283,11.495v.199Z"/><circle cx="208.249" cy="411.195" r="13.107"/><circle cx="231.035" cy="446.681" r="16.189"/><circle cx="233.05" cy="499.203" r="18.578"/><path d="M188.269,548.56c-1.95-3.85-5.95-6.5-10.56-6.5-6.53,0-11.82,5.3-11.82,11.83s5.29,11.82,11.82,11.82c4.82,0,8.97-2.88,10.81-7.02.66-1.46,1.02-3.09,1.02-4.8,0-1.92-.46-3.73-1.27-5.33ZM185.419,555.11c-.41,4.53-4.4,7.86-8.92,7.46-4.52-.4-7.86-4.4-7.45-8.92.4-4.52,4.39-7.85,8.91-7.45,4.52.4,7.86,4.39,7.46,8.91Z" fill="#fff"/><path d="M194.959,547.69c-2.54-7.07-9.31-12.13-17.25-12.13-10.1,0-18.32,8.22-18.32,18.33s8.22,18.32,18.32,18.32c8.45,0,15.57-5.74,17.69-13.52.42-1.53.64-3.14.64-4.8,0-2.17-.38-4.26-1.08-6.2ZM176.499,562.57c-4.52-.4-7.86-4.4-7.45-8.92.4-4.52,4.39-7.85,8.91-7.45,4.52.4,7.86,4.39,7.46,8.91-.41,4.53-4.4,7.86-8.92,7.46Z"/><rect x="259.168" y="390.734" width="5" height="54.224" transform="translate(-220.895 316.856) rotate(-46.124)"/><rect x="217.052" y="411.947" width="38.39" height="5" transform="translate(-220.837 551.023) rotate(-76.952)"/><rect x="237.051" y="422.905" width="35.506" height="5.001" transform="translate(-211.425 256.511) rotate(-39.167)"/><rect x="246.598" y="443.248" width="34.629" height="4.999" transform="translate(-15.936 9.828) rotate(-2.071)"/><rect x="247.756" y="390.836" width="5" height="68.654" transform="translate(-233.48 522.071) rotate(-70.847)"/><rect x="216.984" y="418.847" width="3.999" height="16.501" transform="translate(-217.196 226.814) rotate(-38.191)"/><rect x="253.695" y="446.38" width="9.001" height="36.925" transform="translate(-273.518 459.953) rotate(-60.423)"/><rect x="228.446" y="458.161" width="5" height="30.136" transform="translate(-9.013 4.506) rotate(-1.096)"/><rect x="241.692" y="486.177" width="30.739" height="5.001" transform="translate(-146.406 111.716) rotate(-19.199)"/><rect x="251.372" y="383.844" width="5" height="24.589" transform="translate(-207.358 489.11) rotate(-68.742)"/><rect x="280.131" y="409.022" width="5" height="22.844" transform="translate(-133.131 130.97) rotate(-21.243)"/><rect x="273.814" y="462.886" width="16.82" height="5" transform="translate(-250.512 576.862) rotate(-70.585)"/><circle cx="685.004" cy="206.869" r="17.123"/><circle cx="727.306" cy="224.893" r="13.107"/><circle cx="746.264" cy="264.207" r="17.027"/><path d="M741.458,302.034c.126,9.608-10.649,16.048-19.106,11.587-9.32-4.514-9.42-18.628-.177-23.281,8.46-4.628,19.413,1.8,19.283,11.495v.199Z"/><circle cx="661.844" cy="231.335" r="13.107"/><circle cx="684.63" cy="266.822" r="16.189"/><circle cx="686.646" cy="319.343" r="18.578"/><rect x="712.763" y="210.875" width="5" height="54.224" transform="translate(47.962 588.627) rotate(-46.124)"/><rect x="670.648" y="232.087" width="38.389" height="5" transform="translate(305.565 853.655) rotate(-76.952)"/><rect x="690.646" y="243.046" width="35.506" height="5" transform="translate(4.118 502.667) rotate(-39.174)"/><rect x="700.194" y="263.388" width="34.629" height="5" transform="translate(-9.091 25.956) rotate(-2.059)"/><rect x="701.351" y="210.977" width="5" height="68.655" transform="translate(241.204 829.716) rotate(-70.848)"/><rect x="670.579" y="238.988" width="4.001" height="16.501" transform="translate(-8.9 468.768) rotate(-38.191)"/><rect x="707.291" y="266.52" width="9" height="36.925" transform="translate(112.612 763.36) rotate(-60.423)"/><rect x="682.041" y="278.302" width="5.001" height="30.136" transform="translate(-5.493 13.164) rotate(-1.097)"/><rect x="695.288" y="306.318" width="30.739" height="5.001" transform="translate(-62.03 250.879) rotate(-19.199)"/><rect x="704.968" y="203.984" width="5" height="24.589" transform="translate(249.394 797.188) rotate(-68.741)"/><rect x="733.726" y="229.162" width="5" height="22.844" transform="translate(-37.146 283.079) rotate(-21.242)"/><rect x="727.41" y="283.027" width="16.82" height="4.999" transform="translate(221.896 884.558) rotate(-70.581)"/><circle cx="471.898" cy="181.888" r="6.35"/><circle cx="489.454" cy="182.075" r="6.35"/><circle cx="471.898" cy="204.487" r="6.35"/><circle cx="490.201" cy="205.234" r="6.35"/><circle cx="366.933" cy="108.487" r="6.35"/><circle cx="383.369" cy="108.861" r="6.35"/><circle cx="399.431" cy="108.487" r="6.35"/><circle cx="445.377" cy="86.822" r="6.35"/><circle cx="438.653" cy="130.153" r="6.35"/><circle cx="452.474" cy="129.779" r="6.35"/><circle cx="489.454" cy="67.398" r="6.35"/><rect x="456.145" y="81.886" width="39.55" height="11.109" rx="5.231" ry="5.231"/><rect x="463.329" y="123.151" width="32.312" height="12.416" rx="5.231" ry="5.231"/><rect x="442.295" y="101.953" width="54.112" height="12.416" rx="5.231" ry="5.231"/><rect x="409.822" y="102.233" width="26.528" height="12.416" rx="5.231" ry="5.231"/><path d="M74.609,396.128l-11-.029c.005-2.129.561-213.724.561-284.062,0-16.15,15.03-69.437,61.051-89.104,35.483-15.164,65.432-10.5,84.307-3.918,20.494,7.147,32.538,17.886,33.041,18.34l.086.079,105.898,99.735-7.542,8.008-105.84-99.681c-.629-.552-11.628-10.035-29.709-16.249-24.652-8.472-50.195-7.192-75.918,3.8-22.16,9.47-35.375,27.546-42.559,41.042-8.667,16.284-11.814,31.615-11.814,37.947,0,70.353-.555,281.962-.561,284.092Z"/><path d="M479.377,437.069l-71.158-68.029c-3.758-3.563-6.267-8.366-7.048-13.508l-.016-.108-10.924-82.965c-.854-4.973-3.222-9.447-6.852-12.943-43.268-41.675-147.918-142.127-185.103-174.721-1.241-.925-8.385-3.88-18.303-5.368-8.098-1.215-19.896-1.729-30.12,2.727-11.801,5.142-18.653,15.957-20.365,32.143-.892,8.433-.823,179.415-.721,244.585l-11,.018c-.015-9.591-.354-235.018.781-245.76,2.789-26.366,17.077-37.26,28.572-41.756,23.048-9.014,53.084.475,58.407,5.14,37.359,32.748,142.159,133.341,185.483,175.07,5.364,5.167,8.852,11.785,10.085,19.139l.028.191,10.93,83.006c.424,2.717,1.755,5.252,3.75,7.145l71.175,68.045-7.602,7.951Z"/><path d="M342.072,305.742l-159.827-155.116.317,63.733-11,.055-.374-75.082c0-2.304,1.345-4.348,3.427-5.236,3.139-1.34,5.943.571,7.449,1.597.933.636,2.243,1.614,2.914,2.257l164.754,159.897-7.661,7.895Z"/><path d="M124.14,558.314h-53.658c-3.584,0-6.5-2.916-6.5-6.5v-69.689c0-2.682,1.141-5.251,3.13-7.049l105.028-94.891c.105-.095.165-.229.165-.37v-72.501h11v72.501c0,3.247-1.382,6.357-3.792,8.533l-104.531,94.442v64.523h44.658v-32.899c0-1.854.794-3.624,2.178-4.855l44.115-39.296,7.316,8.215-42.609,37.954v35.382c0,3.584-2.916,6.5-6.5,6.5Z"/><path d="M228.731,558.688h-40.463v-11h35.963v-35.963h11v40.463c0,3.584-2.916,6.5-6.5,6.5Z"/><rect x="208.509" y="392.108" width="23.393" height="10.999" transform="translate(-228.027 322.307) rotate(-51.485)"/><path d="M578.461,560.702c-17.011,0-31.636-3.92-42.827-8.427-22.602-9.103-36.135-22.253-36.7-22.808l-61.595-59.355-201.361-189.221v95.611h-11v-106.015c0-2.594,1.539-4.936,3.919-5.966,2.38-1.031,5.142-.547,7.032,1.229l208.993,196.394,61.684,59.44c.158.154,12.84,12.401,33.53,20.644,27.409,10.92,55.294,10.034,82.88-2.631,23.158-10.633,39.577-27.704,48.803-50.741,6.965-17.394,7.011-31.875,7.011-32.02v-.124s2.242-122.895,2.242-122.895l10.998.201-2.24,122.841c0,1.393-.184,16.831-7.622,35.642-7.06,17.85-22.262,42.244-54.602,57.092-17.726,8.139-34.339,11.108-49.145,11.108Z"/><path d="M574.641,443.425c-1.646,0-3.265-.626-4.5-1.812l-119.347-114.558,7.617-7.936,111.787,107.301,1.048-195.711,11,.059-1.104,206.191c-.015,2.603-1.572,4.938-3.968,5.952-.818.346-1.68.515-2.533.515Z"/><path d="M580.385,506.259c-20.583,0-36.185-10.717-37.049-11.322l6.314-9.008-3.157,4.504,3.146-4.512c.234.163,23.733,16.137,48.525,5.786,29.646-12.379,27.032-41.669,26.906-42.909l-.03-.557-.374-111.315,11-.037.373,111.075c.152,1.826.652,10.591-2.642,20.892-3.378,10.562-11.497,24.86-30.995,33.002-7.652,3.195-15.116,4.401-22.018,4.401Z"/><path d="M636.749,249.62l-.35-64.65-55.18-30.2,1.62-59.15.15-5.56-5.5-.15-.61-.02-4.88-.13-.16,5.76-1.69,61.69c-.07,2.46,1.23,4.72,3.38,5.89l51.9,28.41.32,58.13.03,5.67,5.5-.03,5.5-.03-.03-5.63Z"/><path d="M690.95,193.842h-11v-24.355l-50.743-27.296c-2.111-1.139-3.42-3.331-3.42-5.725l-.004-45.805h11s.004,43.117.004,43.117l54.163,29.136v30.929Z"/><path d="M690.576,94.107h-11V23.824h-36.097v-11h40.597c3.584,0,6.5,2.916,6.5,6.5v74.782Z"/><path d="M523.922,317.261c-2.645,0-4.492-2.041-5.38-3.022-.123-.137-.238-.267-.336-.365l-116.317-110.06,7.561-7.99,109.116,103.246-.365-285.125h47.097v11h-36.083l.367,286.555c0,2.415-1.417,4.517-3.61,5.362-.728.28-1.411.398-2.049.398Z"/></svg>